<svg width="17" height="10" xmlns="http://www.w3.org/2000/svg">

 <g>
  <title>background</title>
  <rect fill="none" id="canvas_background" height="402" width="582" y="-1" x="-1"/>
 </g>
 <g>
  <title>Layer 1</title>
  <path id="svg_1" fill="white" d="m11.449091,0.248795c0.0658,-0.06597 0.14397,-0.1183 0.23002,-0.15401c0.08605,-0.03571 0.17831,-0.05409 0.27147,-0.05409c0.09317,0 0.18542,0.01838 0.27148,0.05409c0.08605,0.03571 0.16422,0.08804 0.23001,0.15401l4.24991,4.2499c0.06596,0.0658 0.1183,0.14396 0.154,0.23002c0.03571,0.08605 0.05409,0.1783 0.05409,0.27147c0,0.09317 -0.01838,0.18542 -0.05409,0.27148c-0.0357,0.08605 -0.08804,0.16421 -0.154,0.23001l-4.24991,4.24991c-0.133,0.133 -0.31339,0.20772 -0.50149,0.20772c-0.18809,0 -0.36848,-0.07472 -0.50149,-0.20772c-0.133,-0.13301 -0.20772,-0.3134 -0.20772,-0.50149c0,-0.1881 0.07472,-0.36849 0.20772,-0.50149l3.74984,-3.74842l-3.74984,-3.74842c-0.06596,-0.06579 -0.11829,-0.14396 -0.154,-0.23001c-0.03571,-0.08605 -0.05409,-0.17831 -0.05409,-0.27148c0,-0.09316 0.01838,-0.18542 0.05409,-0.27147c0.03571,-0.08605 0.08804,-0.16422 0.154,-0.23001z" clip-rule="evenodd" fill-rule="evenodd"/>
  <path id="svg_2" fill="white" d="m0.28436,5c0,-0.18786 0.07463,-0.36802 0.20746,-0.50086c0.13284,-0.13283 0.313,-0.20746 0.50086,-0.20746l14.87468,0c0.1878,0 0.368,0.07463 0.5008,0.20746c0.1329,0.13284 0.2075,0.313 0.2075,0.50086c0,0.18786 -0.0746,0.36802 -0.2075,0.50085c-0.1328,0.13284 -0.313,0.20747 -0.5008,0.20747l-14.87468,0c-0.18786,0 -0.36802,-0.07463 -0.50086,-0.20747c-0.13283,-0.13283 -0.20746,-0.31299 -0.20746,-0.50085z" clip-rule="evenodd" fill-rule="evenodd"/>
 </g>
</svg>